<?xml version="1.0" encoding="UTF-8" standalone="no"?>
<!-- Created with Inkscape (http://www.inkscape.org/) -->

<svg
   width="559.3335"
   height="104.1978"
   viewBox="0 0 559.33349 104.1978"
   id="svg14215"
   version="1.1"
   inkscape:version="1.2.1 (9c6d41e410, 2022-07-14)"
   sodipodi:docname="Dolby.svg"
   xmlns:inkscape="http://www.inkscape.org/namespaces/inkscape"
   xmlns:sodipodi="http://sodipodi.sourceforge.net/DTD/sodipodi-0.dtd"
   xmlns="http://www.w3.org/2000/svg"
   xmlns:svg="http://www.w3.org/2000/svg"
   xmlns:rdf="http://www.w3.org/1999/02/22-rdf-syntax-ns#"
   xmlns:cc="http://creativecommons.org/ns#"
   xmlns:dc="http://purl.org/dc/elements/1.1/">
  <defs
     id="defs14217">
    <clipPath
       id="clipPath10287"
       clipPathUnits="userSpaceOnUse">
      <path
         inkscape:connector-curvature="0"
         id="path10289"
         d="m 114.525,208.369 h 97.95 v 30.823 h -97.95 z" />
    </clipPath>
    <clipPath
       id="clipPath10299"
       clipPathUnits="userSpaceOnUse">
      <path
         inkscape:connector-curvature="0"
         id="path10301"
         d="M 0,0 H 612 V 792 H 0 Z" />
    </clipPath>
    <clipPath
       id="clipPath10311"
       clipPathUnits="userSpaceOnUse">
      <path
         inkscape:connector-curvature="0"
         id="path10313"
         d="m 135.573,120.369 h 55.853 v 46.57 h -55.853 z" />
    </clipPath>
    <clipPath
       id="clipPath10329"
       clipPathUnits="userSpaceOnUse">
      <path
         inkscape:connector-curvature="0"
         id="path10331"
         d="M 0,0 H 612 V 792 H 0 Z" />
    </clipPath>
    <clipPath
       id="clipPath10431"
       clipPathUnits="userSpaceOnUse">
      <path
         inkscape:connector-curvature="0"
         id="path10433"
         d="m 420.593,725.219 h 55.814 v 30.649 h -55.814 z" />
    </clipPath>
    <clipPath
       id="clipPath10443"
       clipPathUnits="userSpaceOnUse">
      <path
         inkscape:connector-curvature="0"
         id="path10445"
         d="M 0,0 H 612 V 792 H 0 Z" />
    </clipPath>
    <clipPath
       id="clipPath10471"
       clipPathUnits="userSpaceOnUse">
      <path
         inkscape:connector-curvature="0"
         id="path10473"
         d="m 415.725,653.219 h 65.549 v 33.075 h -65.549 z" />
    </clipPath>
    <clipPath
       id="clipPath10571"
       clipPathUnits="userSpaceOnUse">
      <path
         inkscape:connector-curvature="0"
         id="path10573"
         d="M 0,0 H 612 V 792 H 0 Z" />
    </clipPath>
    <clipPath
       id="clipPath10579"
       clipPathUnits="userSpaceOnUse">
      <path
         inkscape:connector-curvature="0"
         id="path10581"
         d="m 423.26,569.219 h 54.72 v 51.647 h -54.72 z" />
    </clipPath>
    <clipPath
       id="clipPath10845"
       clipPathUnits="userSpaceOnUse">
      <path
         inkscape:connector-curvature="0"
         id="path10847"
         d="m 429.056,289.153 h 38.888 v 52.97 h -38.888 z" />
    </clipPath>
    <clipPath
       id="clipPath10887"
       clipPathUnits="userSpaceOnUse">
      <path
         inkscape:connector-curvature="0"
         id="path10889"
         d="m 405.12,224.273 h 92.245 v 36.049 H 405.12 Z" />
    </clipPath>
    <clipPath
       id="clipPath11053"
       clipPathUnits="userSpaceOnUse">
      <path
         inkscape:connector-curvature="0"
         id="path11055"
         d="M 0,0 H 612 V 792 H 0 Z" />
    </clipPath>
  </defs>
  <sodipodi:namedview
     id="base"
     pagecolor="#ffffff"
     bordercolor="#666666"
     borderopacity="1.0"
     inkscape:pageopacity="0.0"
     inkscape:pageshadow="2"
     inkscape:zoom="0.7"
     inkscape:cx="480"
     inkscape:cy="118.57143"
     inkscape:document-units="px"
     inkscape:current-layer="g15519"
     showgrid="false"
     units="px"
     inkscape:window-width="1920"
     inkscape:window-height="1017"
     inkscape:window-x="-8"
     inkscape:window-y="-8"
     inkscape:window-maximized="1"
     inkscape:showpageshadow="2"
     inkscape:pagecheckerboard="0"
     inkscape:deskcolor="#d1d1d1" />
  <metadata
     id="metadata14220">
    <rdf:RDF>
      <cc:Work
         rdf:about="">
        <dc:format>image/svg+xml</dc:format>
        <dc:type
           rdf:resource="http://purl.org/dc/dcmitype/StillImage" />
      </cc:Work>
    </rdf:RDF>
  </metadata>
  <g
     inkscape:label="Layer 1"
     inkscape:groupmode="layer"
     id="layer1"
     transform="translate(-3.8172001e-6,-948.16436)">
    <g
       id="g15519"
       transform="translate(0,56.015267)"
       style="fill:#666666">
      <g
         style="fill:#666666"
         transform="matrix(8.8686526,0,0,-8.8686526,-950.0278,1409.8017)"
         id="g9101" />
      <path
         inkscape:connector-curvature="0"
         id="path10407"
         style="fill:#666666;fill-opacity:1;fill-rule:nonzero;stroke:none"
         d="M 559.33351,903.53555 H 541.89774 L 521.624,940.26951 502.00654,903.53555 h -18.34925 c 3.41444,6.23467 27.43962,51.42932 27.43962,51.42932 v 29.7898 h 19.74162 c 0.0177,-4.03523 0,-29.67451 0,-29.67451 0,0 24.95638,-45.28334 28.49498,-51.54461" />
      <path
         inkscape:connector-curvature="0"
         id="path10409"
         style="fill:#666666;fill-opacity:1;fill-rule:nonzero;stroke:none"
         d="m 17.710703,905.65605 h 17.107631 c 17.77278,0 32.618904,17.63088 32.618904,38.44561 0,21.40892 -14.846124,38.73827 -32.618904,38.73827 H 17.710703 Z m 97.590657,0 h 17.16084 v 77.18388 h -17.16084 c -17.790521,0 -32.618908,-17.32935 -32.618908,-38.73827 0,-20.81473 14.828387,-38.44561 32.618908,-38.44561 M 3.8172001e-6,996.34689 H 150.15516 V 892.14909 H 3.8172001e-6 Z" />
      <path
         inkscape:connector-curvature="0"
         id="path10411"
         style="fill:#666666;fill-opacity:1;fill-rule:nonzero;stroke:none"
         d="m 321.42126,956.34128 c 0,14.41156 -5.02853,17.70184 -19.16516,17.70184 -14.12776,0 -19.15629,-3.29028 -19.15629,-17.70184 V 932.0057 c 0,-14.05681 5.02853,-17.08989 19.15629,-17.08989 14.13663,0 19.16516,3.03308 19.16516,17.08989 z m 8.11482,-48.28094 c -5.59612,-3.88447 -15.03237,-5.942 -27.27998,-5.942 -11.95494,0 -20.64622,1.66731 -27.31545,5.97747 -6.96189,4.49641 -10.25216,12.0259 -10.25216,23.80347 v 25.57719 c 0,11.79531 3.41443,19.76823 10.17234,23.73252 5.47196,3.82239 14.38496,5.61385 27.39527,5.61385 12.84181,0 21.99426,-1.84468 27.2445,-5.5163 6.78452,-4.20374 10.31424,-12.41611 10.31424,-23.83007 v -25.57719 c 0,-11.20998 -3.4499,-19.22724 -10.27876,-23.83894" />
      <path
         inkscape:connector-curvature="0"
         id="path10413"
         style="fill:#666666;fill-opacity:1;fill-rule:nonzero;stroke:none"
         d="m 234.81975,954.41235 c 0,14.24306 -7.60043,17.80826 -13.95926,17.80826 h -22.49977 v -56.75938 h 22.49977 c 6.35883,0 13.95926,3.58294 13.95926,16.82383 z M 220.7186,903.55063 h -40.68938 v 81.21912 h 43.53621 c 21.45327,0 29.44393,-8.73562 29.44393,-32.29963 v -17.86147 c 0,-22.349 -9.06376,-31.05802 -32.29076,-31.05802" />
      <path
         inkscape:connector-curvature="0"
         id="path10415"
         style="fill:#666666;fill-opacity:1;fill-rule:nonzero;stroke:none"
         d="m 371.61606,903.54886 h -18.34037 v 81.21912 h 52.18315 v -13.51583 h -33.84278 z" />
      <path
         inkscape:connector-curvature="0"
         id="path10421"
         style="fill:#666666;fill-opacity:1;fill-rule:nonzero;stroke:none"
         d="m 450.41315,972.97356 h -16.56664 v -0.0798 -57.65511 -0.0532 h 18.04771 c 6.09276,0 9.91515,4.85115 9.91515,11.4849 0,10.19008 -4.93984,10.4384 -18.98779,10.95279 v 9.40964 c 12.53141,-0.0532 22.61507,-0.79818 22.61507,12.19439 0,6.5362 -4.16827,13.74642 -15.0235,13.74642 m 9.71117,-31.17332 c 14.41157,-1.32143 17.5422,-8.38974 17.5422,-18.54435 0,-8.9396 -3.78691,-13.48922 -7.92858,-16.05226 -3.47651,-2.18169 -7.60043,-3.65389 -16.22963,-3.65389 H 415.515 v 81.21912 h 38.49882 c 11.82192,0 16.74402,-2.32358 19.041,-3.88447 3.91108,-2.61625 8.95734,-8.42522 8.95734,-17.66635 0,-10.92618 -3.77805,-21.84349 -21.88784,-21.4178" />
      <g
         style="fill:#666666"
         transform="matrix(8.8686526,0,0,-8.8686526,-950.0278,1409.8017)"
         id="g10567">
        <g
           style="fill:#666666"
           clip-path="url(#clipPath10571)"
           id="g10569" />
      </g>
    </g>
  </g>
</svg>
