<?xml version="1.0" encoding="UTF-8" standalone="no"?>
<svg
   inkscape:version="1.2.1 (9c6d41e410, 2022-07-14)"
   height="339.95221"
   width="824.90796"
   sodipodi:docname="DTS.svg"
   xml:space="preserve"
   viewBox="0 0 494.94479 203.97133"
   y="0px"
   x="0px"
   id="Layer_1"
   version="1.1"
   xmlns:inkscape="http://www.inkscape.org/namespaces/inkscape"
   xmlns:sodipodi="http://sodipodi.sourceforge.net/DTD/sodipodi-0.dtd"
   xmlns="http://www.w3.org/2000/svg"
   xmlns:svg="http://www.w3.org/2000/svg"
   xmlns:rdf="http://www.w3.org/1999/02/22-rdf-syntax-ns#"
   xmlns:cc="http://creativecommons.org/ns#"
   xmlns:dc="http://purl.org/dc/elements/1.1/"><metadata
   id="metadata134"><rdf:RDF><cc:Work
       rdf:about=""><dc:format>image/svg+xml</dc:format><dc:type
         rdf:resource="http://purl.org/dc/dcmitype/StillImage" /></cc:Work></rdf:RDF></metadata><defs
   id="defs132" /><sodipodi:namedview
   inkscape:current-layer="g39"
   inkscape:window-maximized="0"
   inkscape:window-y="170"
   inkscape:window-x="365"
   inkscape:cy="315.56715"
   inkscape:cx="586.05329"
   inkscape:zoom="0.55455708"
   scale-x="0.6"
   fit-margin-bottom="0"
   fit-margin-right="0"
   fit-margin-left="0"
   fit-margin-top="0"
   showgrid="false"
   id="namedview130"
   inkscape:window-height="689"
   inkscape:window-width="1350"
   inkscape:pageshadow="2"
   inkscape:pageopacity="0"
   guidetolerance="10"
   gridtolerance="10"
   objecttolerance="10"
   borderopacity="1"
   bordercolor="#666666"
   pagecolor="#ffffff"
   inkscape:showpageshadow="2"
   inkscape:pagecheckerboard="0"
   inkscape:deskcolor="#d1d1d1" />
<style
   id="style2"
   type="text/css">
	.st0{fill:#FFFFFF;}
	.st1{fill:url(#XMLID_14_);}
	.st2{fill:#F4633A;}
	.st3{fill:#FCB813;}
	.st4{fill:#F16522;}
	.st5{fill:#2D2926;}
	.st6{fill:url(#SVGID_1_);}
	.st7{fill:url(#SVGID_2_);}
	.st8{fill:url(#SVGID_3_);}
	.st9{fill:url(#SVGID_4_);}
	.st10{fill:#171112;}
	.st11{fill:#929497;}
	.st12{fill:#231F20;}
	.st13{fill:url(#SVGID_5_);}
	.st14{clip-path:url(#SVGID_7_);fill:url(#SVGID_8_);}
</style>


<g
   transform="matrix(2.6667283,0,0,2.6593393,-478.9444,-1955.4122)"
   id="g39"
   style="fill:#666666">
	<path
   id="path15"
   d="m 361.8,792 -9.2,-9.2 c -1.2,-1.2 -1.9,-2.9 -1.9,-4.7 0,-3.7 3,-6.7 6.7,-6.7 h 4.6 c 1.5,0 2.7,-1.2 2.7,-2.7 v -5 h -38.1 c -6.4,0 -11.7,5.2 -11.7,11.7 0,3.2 1.3,6.1 3.4,8.2 l 9.3,9.3 c 1.2,1.2 1.9,2.9 1.9,4.7 0,3.7 -3,6.7 -6.7,6.7 h -14.3 c -5.6,0 -10.2,-4.6 -10.2,-10.2 v -22.6 h 8.8 c 1.5,0 2.7,-1.2 2.7,-2.7 v -5 H 298.3 V 738.9 L 268.4,752 v 11.8 h -14.5 v -28.5 h -22.2 c -4.3,0 -7.7,3.4 -7.7,7.7 v 20.8 h -16 c -16.7,0 -28.4,9 -28.4,24.1 0,13.5 13.7,24.1 28.4,24.1 h 35.6 c 5.6,0 10.2,-4.6 10.2,-10.2 v -30.3 h 14.5 c 0,0 0,15.6 0,19.7 0,11.2 6.7,20.8 20.5,20.8 h 64.7 c 6.4,0 11.7,-5.2 11.7,-11.7 0,-3.2 -1.3,-6.1 -3.4,-8.3 z M 224,802.6 c 0,0.9 -0.7,1.7 -1.7,1.7 h -1 c -10.4,0 -14.2,-7.2 -14.3,-16.4 0.1,-9.6 4.1,-16.4 14.3,-16.4 0,0 2.7,0 2.7,0 z"
   class="st5"
   style="fill:#666666" />
	
	
</g>



</svg>
