<?xml version="1.0" encoding="UTF-8" standalone="no"?>
<!-- Created with Inkscape (http://www.inkscape.org/) -->

<svg
   width="1000"
   height="104.198"
   viewBox="0 0 1000 104.198"
   id="svg14215"
   version="1.1"
   inkscape:version="1.2.1 (9c6d41e410, 2022-07-14)"
   sodipodi:docname="Dolby_Atmos_Logo_old_horizontally.svg"
   xmlns:inkscape="http://www.inkscape.org/namespaces/inkscape"
   xmlns:sodipodi="http://sodipodi.sourceforge.net/DTD/sodipodi-0.dtd"
   xmlns="http://www.w3.org/2000/svg"
   xmlns:svg="http://www.w3.org/2000/svg"
   xmlns:rdf="http://www.w3.org/1999/02/22-rdf-syntax-ns#"
   xmlns:cc="http://creativecommons.org/ns#"
   xmlns:dc="http://purl.org/dc/elements/1.1/">
  <defs
     id="defs14217">
    <clipPath
       id="clipPath10287"
       clipPathUnits="userSpaceOnUse">
      <path
         inkscape:connector-curvature="0"
         id="path10289"
         d="m 114.525,208.369 97.95,0 0,30.823 -97.95,0 0,-30.823 z" />
    </clipPath>
    <clipPath
       id="clipPath10299"
       clipPathUnits="userSpaceOnUse">
      <path
         inkscape:connector-curvature="0"
         id="path10301"
         d="M 0,0 612,0 612,792 0,792 0,0 Z" />
    </clipPath>
    <clipPath
       id="clipPath10311"
       clipPathUnits="userSpaceOnUse">
      <path
         inkscape:connector-curvature="0"
         id="path10313"
         d="m 135.573,120.369 55.853,0 0,46.57 -55.853,0 0,-46.57 z" />
    </clipPath>
    <clipPath
       id="clipPath10329"
       clipPathUnits="userSpaceOnUse">
      <path
         inkscape:connector-curvature="0"
         id="path10331"
         d="M 0,0 612,0 612,792 0,792 0,0 Z" />
    </clipPath>
    <clipPath
       id="clipPath10431"
       clipPathUnits="userSpaceOnUse">
      <path
         inkscape:connector-curvature="0"
         id="path10433"
         d="m 420.593,725.219 55.814,0 0,30.649 -55.814,0 0,-30.649 z" />
    </clipPath>
    <clipPath
       id="clipPath10443"
       clipPathUnits="userSpaceOnUse">
      <path
         inkscape:connector-curvature="0"
         id="path10445"
         d="M 0,0 612,0 612,792 0,792 0,0 Z" />
    </clipPath>
    <clipPath
       id="clipPath10471"
       clipPathUnits="userSpaceOnUse">
      <path
         inkscape:connector-curvature="0"
         id="path10473"
         d="m 415.725,653.219 65.549,0 0,33.075 -65.549,0 0,-33.075 z" />
    </clipPath>
    <clipPath
       id="clipPath10571"
       clipPathUnits="userSpaceOnUse">
      <path
         inkscape:connector-curvature="0"
         id="path10573"
         d="M 0,0 612,0 612,792 0,792 0,0 Z" />
    </clipPath>
    <clipPath
       id="clipPath10579"
       clipPathUnits="userSpaceOnUse">
      <path
         inkscape:connector-curvature="0"
         id="path10581"
         d="m 423.26,569.219 54.72,0 0,51.647 -54.72,0 0,-51.647 z" />
    </clipPath>
    <clipPath
       id="clipPath10845"
       clipPathUnits="userSpaceOnUse">
      <path
         inkscape:connector-curvature="0"
         id="path10847"
         d="m 429.056,289.153 38.888,0 0,52.97 -38.888,0 0,-52.97 z" />
    </clipPath>
    <clipPath
       id="clipPath10887"
       clipPathUnits="userSpaceOnUse">
      <path
         inkscape:connector-curvature="0"
         id="path10889"
         d="m 405.12,224.273 92.245,0 0,36.049 -92.245,0 0,-36.049 z" />
    </clipPath>
    <clipPath
       id="clipPath11053"
       clipPathUnits="userSpaceOnUse">
      <path
         inkscape:connector-curvature="0"
         id="path11055"
         d="M 0,0 612,0 612,792 0,792 0,0 Z" />
    </clipPath>
  </defs>
  <sodipodi:namedview
     id="base"
     pagecolor="#ffffff"
     bordercolor="#666666"
     borderopacity="1.0"
     inkscape:pageopacity="0.0"
     inkscape:pageshadow="2"
     inkscape:zoom="0.7"
     inkscape:cx="480"
     inkscape:cy="118.57143"
     inkscape:document-units="px"
     inkscape:current-layer="layer1"
     showgrid="false"
     units="px"
     inkscape:window-width="1920"
     inkscape:window-height="1017"
     inkscape:window-x="-8"
     inkscape:window-y="-8"
     inkscape:window-maximized="1"
     inkscape:showpageshadow="2"
     inkscape:pagecheckerboard="0"
     inkscape:deskcolor="#d1d1d1" />
  <metadata
     id="metadata14220">
    <rdf:RDF>
      <cc:Work
         rdf:about="">
        <dc:format>image/svg+xml</dc:format>
        <dc:type
           rdf:resource="http://purl.org/dc/dcmitype/StillImage" />
        <dc:title />
      </cc:Work>
    </rdf:RDF>
  </metadata>
  <g
     inkscape:label="Layer 1"
     inkscape:groupmode="layer"
     id="layer1"
     transform="translate(0,-948.16416)">
    <g
       id="g15519"
       transform="translate(0,56.015267)"
       style="fill:#808080">
      <g
         style="fill:#808080"
         transform="matrix(8.8686526,0,0,-8.8686526,-950.0278,1409.8017)"
         id="g9101" />
      <path
         inkscape:connector-curvature="0"
         id="path10397"
         style="fill:#808080;fill-opacity:1;fill-rule:nonzero;stroke:none"
         d="m 616.92831,919.15857 11.21885,31.63449 -21.99426,0 10.77541,-31.63449 z m -7.42306,-16.19416 -28.84973,81.82219 14.03908,0 7.36985,-21.81688 30.48156,0 7.93744,21.81688 14.80178,0 -29.88736,-81.82219 -15.89262,0 z" />
      <path
         inkscape:connector-curvature="0"
         id="path10399"
         style="fill:#808080;fill-opacity:1;fill-rule:nonzero;stroke:none"
         d="m 652.87296,915.79647 26.3399,0 0,68.98924 14.13663,0 0,-68.98924 26.3399,0 0,-12.1678 -66.81643,0 0,12.1678 z" />
      <path
         inkscape:connector-curvature="0"
         id="path10401"
         style="fill:#808080;fill-opacity:1;fill-rule:nonzero;stroke:none"
         d="m 772.45255,950.68308 -20.89455,-47.05707 -19.12968,0 0,81.15704 13.48922,0 0,-55.42021 -0.15963,-5.48082 20.81472,46.24115 10.64239,0 21.33797,-46.17907 -0.22171,60.83895 13.48922,0 0,-81.15704 -18.4734,0 -20.89455,47.05707 z" />
      <path
         inkscape:connector-curvature="0"
         id="path10403"
         style="fill:#808080;fill-opacity:1;fill-rule:nonzero;stroke:none"
         d="m 871.4143,973.72118 -16.30945,0 c -4.05298,0 -6.91755,-1.08197 -8.7445,-3.29914 -1.96884,-2.36793 -2.91778,-5.46309 -2.91778,-9.46285 l 0,-33.4969 c 0,-4.00863 0.94894,-7.09492 2.91778,-9.46285 1.82695,-2.21716 4.69152,-3.30801 8.7445,-3.30801 l 16.30945,0 c 4.0441,0 6.91755,1.09085 8.74449,3.30801 1.95997,2.36793 2.91779,5.46309 2.91779,9.46285 l 0,33.4969 c 0,3.9909 -0.95782,7.09492 -2.91779,9.46285 -1.82694,2.21717 -4.70039,3.29914 -8.74449,3.29914 m 18.40245,-65.48613 c -2.35906,-2.02205 -5.2325,-3.54746 -8.55825,-4.50527 -3.21932,-0.94895 -6.81999,-1.42786 -10.7222,-1.42786 l -14.54459,0 c -3.90221,0 -7.51175,0.47891 -10.7222,1.42786 -3.31688,0.95781 -6.19919,2.47435 -8.56712,4.50527 -2.39454,2.0664 -4.25695,4.72699 -5.52517,7.8931 -1.25048,3.09516 -1.88015,6.80226 -1.88015,10.99713 l 0,33.71862 c 0,8.51391 2.48322,14.94368 7.36098,19.11195 4.76246,4.08844 11.27206,6.15484 19.33366,6.15484 l 14.54459,0 c 8.05274,0 14.5712,-2.0664 19.34253,-6.15484 4.87776,-4.17714 7.35211,-10.59804 7.35211,-19.11195 l 0,-33.71862 c 0,-4.20374 -0.63854,-7.91084 -1.89789,-10.99713 -1.26821,-3.18384 -3.13063,-5.83557 -5.5163,-7.8931" />
      <path
         inkscape:connector-curvature="0"
         id="path10405"
         style="fill:#808080;fill-opacity:1;fill-rule:nonzero;stroke:none"
         d="m 952.24054,938.35832 -19.33367,-2.53644 c -1.14405,-0.13303 -2.27924,-0.33701 -3.40556,-0.61193 -0.99329,-0.23059 -1.88015,-0.5676 -2.6872,-1.0199 -0.65628,-0.37248 -1.14406,-0.80705 -1.50767,-1.36577 -0.31927,-0.48778 -0.48778,-1.14406 -0.48778,-1.95111 l 0,-10.24329 c 0,-1.81807 0.41683,-3.24593 1.27709,-4.36338 0.64741,-0.86912 2.42114,-1.34803 4.98418,-1.34803 l 36.29053,0 0,-8.40748 -0.81592,-0.71836 c -0.98442,-0.878 -2.17282,-1.56976 -3.53859,-2.03979 -1.20614,-0.39909 -2.43888,-0.71837 -3.71597,-0.92234 -1.215,-0.19512 -2.44774,-0.33701 -3.70709,-0.41683 -1.24161,-0.071 -2.31472,-0.10643 -3.23706,-0.10643 l -20.49546,0 c -4.05297,0 -7.45853,0.54099 -10.10139,1.60523 -2.74928,1.09085 -4.94871,2.58078 -6.5362,4.42546 -1.56088,1.83581 -2.6606,3.94655 -3.24593,6.26127 -0.56759,2.17282 -0.86026,4.45206 -0.86026,6.79339 l 0,10.80201 c 0,5.47196 1.65844,9.55154 4.96645,12.12345 3.05968,2.39454 7.49401,3.97316 13.57791,4.86002 l 19.95447,2.64286 c 3.75144,0.46117 5.401,1.3303 6.11937,1.96884 1.10858,1.00216 1.33916,3.13064 1.33916,4.74473 l 0,10.13687 c 0,0.67402 -0.0887,1.36577 -0.25719,2.04866 -0.1419,0.53212 -0.35474,0.96668 -0.66515,1.34804 -0.3104,0.36361 -0.78044,0.69175 -1.44559,0.98442 -0.4523,0.19511 -1.32143,0.44343 -2.90005,0.44343 l -41.46095,0 0,8.46956 0.9046,0.7361 c 0.94895,0.7627 2.10187,1.38351 3.44104,1.84468 1.17066,0.39909 2.38567,0.72723 3.65389,0.97555 1.23274,0.23059 2.49209,0.39909 3.76917,0.47891 1.23275,0.071 2.32359,0.10642 3.23706,0.10642 l 27.43961,0 c 5.40101,0 9.77326,-1.31256 13.00145,-3.89334 3.37895,-2.72267 5.09947,-7.31663 5.09947,-13.64885 l 0,-12.34517 c 0,-5.56064 -1.64957,-9.81759 -4.91323,-12.65556 -3.12177,-2.68721 -7.61817,-4.39885 -13.73754,-5.2059" />
      <path
         inkscape:connector-curvature="0"
         id="path10407"
         style="fill:#808080;fill-opacity:1;fill-rule:nonzero;stroke:none"
         d="m 559.33351,903.53555 -17.43577,0 -20.27374,36.73396 -19.61746,-36.73396 -18.34925,0 c 3.41444,6.23467 27.43962,51.42932 27.43962,51.42932 l 0,29.7898 19.74162,0 c 0.0177,-4.03523 0,-29.67451 0,-29.67451 0,0 24.95638,-45.28334 28.49498,-51.54461" />
      <path
         inkscape:connector-curvature="0"
         id="path10409"
         style="fill:#808080;fill-opacity:1;fill-rule:nonzero;stroke:none"
         d="m 17.710703,905.65605 17.107631,0 c 17.77278,0 32.618904,17.63088 32.618904,38.44561 0,21.40892 -14.846124,38.73827 -32.618904,38.73827 l -17.107631,0 0,-77.18388 z m 97.590657,0 17.16084,0 0,77.18388 -17.16084,0 c -17.790521,0 -32.618908,-17.32935 -32.618908,-38.73827 0,-20.81473 14.828387,-38.44561 32.618908,-38.44561 M 3.8172001e-6,996.34689 l 150.1551561827999,0 0,-104.1978 -150.1551561827999,0 0,104.1978 z" />
      <path
         inkscape:connector-curvature="0"
         id="path10411"
         style="fill:#808080;fill-opacity:1;fill-rule:nonzero;stroke:none"
         d="m 321.42126,956.34128 c 0,14.41156 -5.02853,17.70184 -19.16516,17.70184 -14.12776,0 -19.15629,-3.29028 -19.15629,-17.70184 l 0,-24.33558 c 0,-14.05681 5.02853,-17.08989 19.15629,-17.08989 14.13663,0 19.16516,3.03308 19.16516,17.08989 l 0,24.33558 z m 8.11482,-48.28094 c -5.59612,-3.88447 -15.03237,-5.942 -27.27998,-5.942 -11.95494,0 -20.64622,1.66731 -27.31545,5.97747 -6.96189,4.49641 -10.25216,12.0259 -10.25216,23.80347 l 0,25.57719 c 0,11.79531 3.41443,19.76823 10.17234,23.73252 5.47196,3.82239 14.38496,5.61385 27.39527,5.61385 12.84181,0 21.99426,-1.84468 27.2445,-5.5163 6.78452,-4.20374 10.31424,-12.41611 10.31424,-23.83007 l 0,-25.57719 c 0,-11.20998 -3.4499,-19.22724 -10.27876,-23.83894" />
      <path
         inkscape:connector-curvature="0"
         id="path10413"
         style="fill:#808080;fill-opacity:1;fill-rule:nonzero;stroke:none"
         d="m 234.81975,954.41235 c 0,14.24306 -7.60043,17.80826 -13.95926,17.80826 l -22.49977,0 0,-56.75938 22.49977,0 c 6.35883,0 13.95926,3.58294 13.95926,16.82383 l 0,22.12729 z m -14.10115,-50.86172 -40.68938,0 0,81.21912 43.53621,0 c 21.45327,0 29.44393,-8.73562 29.44393,-32.29963 l 0,-17.86147 c 0,-22.349 -9.06376,-31.05802 -32.29076,-31.05802" />
      <path
         inkscape:connector-curvature="0"
         id="path10415"
         style="fill:#808080;fill-opacity:1;fill-rule:nonzero;stroke:none"
         d="m 371.61606,903.54886 -18.34037,0 0,81.21912 52.18315,0 0,-13.51583 -33.84278,0 0,-67.70329 z" />
      <path
         inkscape:connector-curvature="0"
         id="path10417"
         style="fill:#808080;fill-opacity:1;fill-rule:nonzero;stroke:none"
         d="m 550.10213,976.57512 0,-2.75816 1.82694,0 c 1.56088,0 1.97771,0.46117 1.97771,1.3037 0,0.99329 -0.54099,1.45446 -2.19943,1.45446 l -1.60522,0 z m 5.17929,-1.35691 c 0,-1.74712 -1.03763,-2.52756 -3.15724,-2.52756 l -3.39669,0 0,8.87752 1.37464,0 0,-3.8756 1.5254,0 2.36794,3.8756 1.48106,0 -2.50983,-3.91108 c 1.31256,-0.15963 2.31472,-0.86026 2.31472,-2.43888" />
      <path
         inkscape:connector-curvature="0"
         id="path10419"
         style="fill:#808080;fill-opacity:1;fill-rule:nonzero;stroke:none"
         d="m 551.74549,983.55829 c -3.57407,0 -6.33222,-2.69607 -6.33222,-6.45638 0,-3.67162 2.75815,-6.42977 6.33222,-6.42977 3.52085,0 6.279,2.75815 6.279,6.42977 0,3.76031 -2.75815,6.45638 -6.279,6.45638 m 0,-14.11002 c -4.23035,0 -7.81328,3.23705 -7.81328,7.65364 0,4.46094 3.58293,7.71573 7.81328,7.71573 4.17713,0 7.76007,-3.25479 7.76007,-7.71573 0,-4.41659 -3.58294,-7.65364 -7.76007,-7.65364" />
      <path
         inkscape:connector-curvature="0"
         id="path10421"
         style="fill:#808080;fill-opacity:1;fill-rule:nonzero;stroke:none"
         d="m 450.41315,972.97356 -16.56664,0 0,-0.0798 0,-57.65511 0,-0.0532 18.04771,0 c 6.09276,0 9.91515,4.85115 9.91515,11.4849 0,10.19008 -4.93984,10.4384 -18.98779,10.95279 l 0,9.40964 c 12.53141,-0.0532 22.61507,-0.79818 22.61507,12.19439 0,6.5362 -4.16827,13.74642 -15.0235,13.74642 m 9.71117,-31.17332 c 14.41157,-1.32143 17.5422,-8.38974 17.5422,-18.54435 0,-8.9396 -3.78691,-13.48922 -7.92858,-16.05226 -3.47651,-2.18169 -7.60043,-3.65389 -16.22963,-3.65389 l -37.99331,0 0,81.21912 38.49882,0 c 11.82192,0 16.74402,-2.32358 19.041,-3.88447 3.91108,-2.61625 8.95734,-8.42522 8.95734,-17.66635 0,-10.92618 -3.77805,-21.84349 -21.88784,-21.4178" />
      <path
         inkscape:connector-curvature="0"
         id="path10423"
         style="fill:#808080;fill-opacity:1;fill-rule:nonzero;stroke:none"
         d="m 983.29678,977.14094 2.89118,0 0,7.73346 1.40125,0 0,-7.73346 2.90005,0 0,-1.27709 -7.19248,0 0,1.27709 z" />
      <path
         inkscape:connector-curvature="0"
         id="path10425"
         style="fill:#808080;fill-opacity:1;fill-rule:nonzero;stroke:none"
         d="m 998.23514,975.86474 -2.13734,6.19032 -0.0266,0.0975 c -0.12416,0.36362 -0.22171,0.68289 -0.3104,0.94008 -0.0621,-0.17737 -0.12416,-0.39022 -0.20398,-0.62081 l -2.17282,-6.52733 -0.0355,-0.0798 -1.9511,0 0,9.01055 1.35691,0 0,-6.83773 2.29698,6.75791 0.0266,0.0798 1.23274,0 2.33246,-6.73131 0,6.73131 1.3569,0 0,-9.01055 -1.76486,0 z" />
      <g
         style="fill:#808080"
         transform="matrix(8.8686526,0,0,-8.8686526,-950.0278,1409.8017)"
         id="g10567">
        <g
           style="fill:#808080"
           clip-path="url(#clipPath10571)"
           id="g10569" />
      </g>
    </g>
  </g>
</svg>
