<?xml version="1.0" encoding="UTF-8" standalone="no"?>
<!-- Created with Inkscape (http://www.inkscape.org/) -->

<svg
   width="119.26467mm"
   height="52.300728mm"
   viewBox="0 0 119.26467 52.300728"
   version="1.1"
   id="svg974"
   inkscape:version="1.2.1 (9c6d41e410, 2022-07-14)"
   sodipodi:docname="LG_Logo.svg"
   xmlns:inkscape="http://www.inkscape.org/namespaces/inkscape"
   xmlns:sodipodi="http://sodipodi.sourceforge.net/DTD/sodipodi-0.dtd"
   xmlns="http://www.w3.org/2000/svg"
   xmlns:svg="http://www.w3.org/2000/svg">
  <sodipodi:namedview
     id="namedview976"
     pagecolor="#ffffff"
     bordercolor="#000000"
     borderopacity="0.25"
     inkscape:showpageshadow="2"
     inkscape:pageopacity="0.0"
     inkscape:pagecheckerboard="0"
     inkscape:deskcolor="#d1d1d1"
     inkscape:document-units="mm"
     showgrid="false"
     inkscape:zoom="0.74564394"
     inkscape:cx="307.11709"
     inkscape:cy="375.51435"
     inkscape:window-width="1920"
     inkscape:window-height="1017"
     inkscape:window-x="-8"
     inkscape:window-y="-8"
     inkscape:window-maximized="1"
     inkscape:current-layer="layer1" />
  <defs
     id="defs971" />
  <g
     inkscape:label="Camada 1"
     inkscape:groupmode="layer"
     id="layer1"
     transform="translate(-23.754761,-49.430281)">
    <path
       d="m 49.925777,101.73101 c 14.441797,0 26.171016,-11.694688 26.171016,-26.14461 6.77e-4,-14.450599 -11.728542,-26.156119 -26.171016,-26.156119 -14.464142,0 -26.171016,11.70552 -26.171016,26.155442 0,14.449922 11.706874,26.145287 26.171016,26.145287"
       fill="#a50034"
       id="path2"
       style="stroke-width:0.677128;fill:#808080" />
    <path
       fill="#ffffff"
       d="m 56.168225,87.053571 v -2.06321 H 50.976003 V 64.107718 H 48.873519 V 87.053571 Z M 41.569334,70.368448 c 1.735481,0 3.134428,-1.411136 3.134428,-3.134428 0,-1.724646 -1.398947,-3.141199 -3.134428,-3.141199 -1.73548,0 -3.134427,1.416553 -3.134427,3.141199 0,1.724647 1.398947,3.134428 3.134427,3.134428"
       id="path4"
       style="stroke-width:0.677128" />
    <path
       d="m 50.974649,53.698899 c -0.27356,-0.01354 -0.793594,-0.03047 -1.042101,-0.03047 -12.079972,0 -21.9112,9.834614 -21.9112,21.907138 0,5.863933 2.278537,11.360185 6.406312,15.493377 4.143349,4.123713 9.64231,6.40225 15.504888,6.40225 5.840234,0 11.33784,-2.278537 15.475095,-6.40225 4.136578,-4.133192 6.425949,-9.629444 6.425949,-15.493377 V 74.601178 H 56.187861 v 2.017166 h 13.558144 c 0,0.04334 0,0.257986 -0.0095,0.313511 -0.687962,10.320115 -9.308485,18.49441 -19.803977,18.49441 -5.31275,0 -10.294384,-2.065919 -14.043644,-5.817888 -3.761449,-3.736395 -5.833462,-8.713966 -5.833462,-14.033488 0,-5.289051 2.07269,-10.292353 5.833462,-14.040259 3.74926,-3.744521 8.731571,-5.81044 14.043644,-5.81044 0.22887,0 0.785469,0 1.042101,0.01354 z"
       fill="#ffffff"
       id="path6"
       style="stroke-width:0.677128" />
    <path
       d="M 95.778887,58.234983 H 87.915394 V 92.278972 H 112.06992 V 85.651915 H 95.778887 Z M 129.36988,79.30519 h 6.40496 v 5.952637 c -1.18092,0.449613 -3.48383,0.897872 -5.67502,0.897872 -7.07802,0 -9.43646,-3.594875 -9.43646,-10.896352 0,-6.963589 2.24536,-11.068342 9.32406,-11.068342 3.93344,0 6.18015,1.236437 8.03142,3.596229 l 4.88954,-4.495456 c -2.97801,-4.265909 -8.20341,-5.55787 -13.08889,-5.55787 -11.01282,0 -16.79753,6.010192 -16.79753,17.46856 0,11.402844 5.22405,17.581642 16.74201,17.581642 5.27957,0 10.44809,-1.347486 13.25546,-3.31319 V 72.955756 h -13.64955 z"
       fill="#6b6b6b"
       id="path8"
       sodipodi:nodetypes="ccccccccccsssccssscccc"
       style="stroke-width:0.677128" />
  </g>
</svg>
