<?xml version="1.0" encoding="UTF-8" standalone="no"?>
<svg
   xmlns:dc="http://purl.org/dc/elements/1.1/"
   xmlns:cc="http://creativecommons.org/ns#"
   xmlns:rdf="http://www.w3.org/1999/02/22-rdf-syntax-ns#"
   xmlns:svg="http://www.w3.org/2000/svg"
   xmlns="http://www.w3.org/2000/svg"
   xmlns:sodipodi="http://sodipodi.sourceforge.net/DTD/sodipodi-0.dtd"
   xmlns:inkscape="http://www.inkscape.org/namespaces/inkscape"
   enable-background="new 0 0 24 24"
   viewBox="0 0 24 24"
   fill="black"
   width="48px"
   height="48px"
   version="1.1"
   id="svg8"
   sodipodi:docname="luggage.svg"
   inkscape:version="0.92.1 r15371">
  <metadata
     id="metadata14">
    <rdf:RDF>
      <cc:Work
         rdf:about="">
        <dc:format>image/svg+xml</dc:format>
        <dc:type
           rdf:resource="http://purl.org/dc/dcmitype/StillImage" />
      </cc:Work>
    </rdf:RDF>
  </metadata>
  <defs
     id="defs12" />
  <sodipodi:namedview
     pagecolor="#ffffff"
     bordercolor="#666666"
     borderopacity="1"
     objecttolerance="10"
     gridtolerance="10"
     guidetolerance="10"
     inkscape:pageopacity="0"
     inkscape:pageshadow="2"
     inkscape:window-width="732"
     inkscape:window-height="480"
     id="namedview10"
     showgrid="false"
     inkscape:zoom="4.9166667"
     inkscape:cx="24"
     inkscape:cy="24"
     inkscape:window-x="224"
     inkscape:window-y="376"
     inkscape:window-maximized="0"
     inkscape:current-layer="svg8" />
  <rect
     fill="none"
     height="24"
     width="24"
     id="rect2" />
  <g
     id="g6"
     style="fill:#808080">
    <path
       d="M17,6h-2V3c0-0.55-0.45-1-1-1h-4C9.45,2,9,2.45,9,3v3H7C5.9,6,5,6.9,5,8v11c0,1.1,0.9,2,2,2c0,0.55,0.45,1,1,1 c0.55,0,1-0.45,1-1h6c0,0.55,0.45,1,1,1c0.55,0,1-0.45,1-1c1.1,0,2-0.9,2-2V8C19,6.9,18.1,6,17,6z M9.5,18H8V9h1.5V18z M12.75,18 h-1.5V9h1.5V18z M13.5,6h-3V3.5h3V6z M16,18h-1.5V9H16V18z"
       id="path4"
       style="fill:#808080" />
  </g>
</svg>
